HIERARCHY
ROOT joint_0
{
	OFFSET 0.000000 0.000000 0.000000
	CHANNELS 6 Xposition Yposition Zposition Zrotation Yrotation Xrotation 
	JOINT joint_1
	{
		OFFSET 14.113007 -2.961990 123.953979
		CHANNELS 3 Zrotation Yrotation Xrotation
		JOINT joint_2
		{
			OFFSET 0.764000 -2.434006 113.871948
			CHANNELS 3 Zrotation Yrotation Xrotation
			JOINT joint_3
			{
				OFFSET 0.186996 -2.169998 113.753052
				CHANNELS 3 Zrotation Yrotation Xrotation
				JOINT joint_4
				{
					OFFSET 16.096001 -2.720001 160.853027
					CHANNELS 3 Zrotation Yrotation Xrotation
					JOINT joint_5
					{
						OFFSET 34.392006 -0.188995 92.567017
						CHANNELS 3 Zrotation Yrotation Xrotation
						End Site
						{
							OFFSET 0.000000 0.000000 0.000000
						}
					}
				}
				JOINT joint_6
				{
					OFFSET 9.183998 -36.684006 89.597046
					CHANNELS 3 Zrotation Yrotation Xrotation
					JOINT joint_7
					{
						OFFSET 0.486000 -164.365997 -28.984009
						CHANNELS 3 Zrotation Yrotation Xrotation
						JOINT joint_8
						{
							OFFSET 38.899002 -34.967010 -291.651978
							CHANNELS 3 Zrotation Yrotation Xrotation
							JOINT joint_9
							{
								OFFSET 41.714005 -45.890991 -258.857056
								CHANNELS 3 Zrotation Yrotation Xrotation
								End Site
								{
									OFFSET 0.000000 0.000000 0.000000
								}
							}
						}
					}
				}
				JOINT joint_10
				{
					OFFSET 8.867004 33.650002 90.817993
					CHANNELS 3 Zrotation Yrotation Xrotation
					JOINT joint_11
					{
						OFFSET 0.018997 164.299999 -29.368042
						CHANNELS 3 Zrotation Yrotation Xrotation
						JOINT joint_12
						{
							OFFSET 29.440994 30.887997 -293.216919
							CHANNELS 3 Zrotation Yrotation Xrotation
							JOINT joint_13
							{
								OFFSET 46.174011 54.490005 -256.422058
								CHANNELS 3 Zrotation Yrotation Xrotation
								End Site
								{
									OFFSET 0.000000 0.000000 0.000000
								}
							}
						}
					}
				}
			}
		}
	}
	JOINT joint_14
	{
		OFFSET -2.264000 -89.466995 -116.150024
		CHANNELS 3 Zrotation Yrotation Xrotation
		JOINT joint_15
		{
			OFFSET -16.400993 -17.452988 -493.781982
			CHANNELS 3 Zrotation Yrotation Xrotation
			JOINT joint_16
			{
				OFFSET -50.497004 -13.404022 -424.754013
				CHANNELS 3 Zrotation Yrotation Xrotation
				JOINT joint_17
				{
					OFFSET 198.546007 -19.341003 -89.309000
					CHANNELS 3 Zrotation Yrotation Xrotation
					End Site
					{
						OFFSET 0.000000 0.000000 0.000000
					}
				}
			}
		}
	}
	JOINT joint_18
	{
		OFFSET -0.867996 96.016006 -110.817993
		CHANNELS 3 Zrotation Yrotation Xrotation
		JOINT joint_19
		{
			OFFSET -10.130997 24.658998 -493.645020
			CHANNELS 3 Zrotation Yrotation Xrotation
			JOINT joint_20
			{
				OFFSET -48.871004 19.434999 -424.714005
				CHANNELS 3 Zrotation Yrotation Xrotation
				JOINT joint_21
				{
					OFFSET 195.579996 24.926001 -94.327003
					CHANNELS 3 Zrotation Yrotation Xrotation
					End Site
					{
						OFFSET 0.000000 0.000000 0.000000
					}
				}
			}
		}
	}
}
MOTION
Frames: 6
Frame Time: 0.016667
-2596.276367 924.294189 1103.609985 5.635852 -3.898747 -2.144341 -0.757394 -1.454670 4.737598 -1.050786 0.213914 -0.942481 -1.082606 -0.273940 0.728607 -0.627095 -3.215727 1.589814 0.000000 0.000000 0.000000 1.666856 2.958914 0.184502 -0.419785 3.321213 -2.039317 0.959972 -4.806433 0.803571 0.000000 0.000000 0.000000 0.100260 0.832659 -0.139394 0.230329 0.853867 1.906191 -0.002366 -2.597041 3.177546 0.000000 0.000000 0.000000 5.244061 -13.921111 -7.248323 2.099731 25.879552 5.688896 5.541629 -6.777097 1.605489 0.000000 0.000000 0.000000 -9.168377 -4.956186 12.340149 -6.437479 55.637387 -10.398291 -21.601199 9.608549 -9.235660 0.000000 0.000000 0.000000 
-2582.452881 924.242981 1105.525024 5.350504 -4.063855 -2.201786 -0.468612 -1.221923 4.840306 -0.783818 0.188307 -0.953980 -0.816493 -0.214183 0.756523 -0.684266 -3.170457 1.731977 0.000000 0.000000 0.000000 1.801197 2.982141 0.163054 -0.537727 3.389461 -2.130101 0.581377 -3.330377 -0.006639 0.000000 0.000000 0.000000 0.269944 0.857989 -0.319960 0.076711 0.821079 0.911006 -0.108372 -2.951110 3.036235 0.000000 0.000000 0.000000 5.434777 -13.110924 -7.043513 2.142408 26.095637 5.788768 5.559611 -6.851039 1.604448 0.000000 0.000000 0.000000 -8.909200 -6.649306 12.426247 -6.314241 58.004069 -9.814955 -22.432779 8.407153 -9.379467 0.000000 0.000000 0.000000 
-2569.296875 924.537964 1108.166016 5.289914 -4.109950 -2.158166 -0.283740 -1.045890 4.781906 -0.630273 0.169490 -0.938030 -0.666578 -0.177129 0.749449 -0.700838 -3.089030 1.773652 0.000000 0.000000 0.000000 1.863604 2.977128 0.131126 -0.636940 3.413903 -2.077847 0.174474 -1.908041 -1.007861 0.000000 0.000000 0.000000 0.436743 0.958882 -0.362694 -0.115041 0.856550 0.201727 -0.358824 -3.752581 2.635439 0.000000 0.000000 0.000000 5.514312 -12.144042 -6.952593 2.181838 25.764595 5.808035 5.496967 -6.805142 1.586076 0.000000 0.000000 0.000000 -8.590827 -8.671119 12.602557 -6.247910 59.753030 -9.339927 -22.466960 6.936213 -9.239031 0.000000 0.000000 0.000000 
-2556.573242 925.377747 1111.541992 5.319154 -4.067833 -2.036209 -0.150040 -0.917638 4.600481 -0.534396 0.159204 -0.899750 -0.576793 -0.157019 0.720382 -0.693733 -2.979621 1.757400 0.000000 0.000000 0.000000 1.879762 2.961186 0.097257 -0.734805 3.419075 -1.970923 -0.252210 -0.535989 -2.120715 0.000000 0.000000 0.000000 0.595077 1.110194 -0.318651 -0.330899 0.939434 -0.350495 -0.695842 -4.780488 2.041793 0.000000 0.000000 0.000000 5.526231 -11.045391 -6.936909 2.250743 24.975369 5.726403 5.387205 -6.675073 1.560078 0.000000 0.000000 0.000000 -8.229599 -10.850745 12.750943 -6.226249 60.872599 -8.949231 -21.941717 5.145492 -8.880925 0.000000 0.000000 0.000000 
-2543.924316 926.732056 1115.144043 5.306507 -3.955270 -1.971324 -0.040801 -0.833590 4.462797 -0.455451 0.149909 -0.874082 -0.502400 -0.146895 0.699638 -0.675443 -2.856338 1.714501 0.000000 0.000000 0.000000 1.859934 2.965188 0.010524 -0.825364 3.436454 -1.910361 -0.601664 0.565404 -3.005745 0.000000 0.000000 0.000000 0.711983 1.286555 -0.226611 -0.531495 1.057886 -0.842822 -1.020406 -5.710906 1.407355 0.000000 0.000000 0.000000 5.512689 -9.949314 -6.843256 2.363766 23.983165 5.551489 5.283455 -6.456607 1.547099 0.000000 0.000000 0.000000 -7.928087 -12.969592 12.994554 -6.289972 61.270118 -8.736796 -21.413878 3.630716 -8.577038 0.000000 0.000000 0.000000 
-2531.304932 928.552124 1118.998047 5.195224 -3.763169 -2.030837 0.053407 -0.812417 4.445483 -0.384635 0.141845 -0.873528 -0.434239 -0.148765 0.701365 -0.642016 -2.696372 1.635042 0.000000 0.000000 0.000000 1.790860 2.997922 -0.166438 -0.895086 3.470179 -1.903047 -0.832231 1.304282 -3.553956 0.000000 0.000000 0.000000 0.768991 1.499382 -0.069953 -0.708702 1.228261 -1.334427 -1.311210 -6.484392 0.762426 0.000000 0.000000 0.000000 5.495044 -8.871668 -6.575146 2.535488 22.762704 5.242931 5.188561 -6.109319 1.552777 0.000000 0.000000 0.000000 -7.710032 -14.953670 13.471408 -6.436335 60.802760 -8.782860 -21.018323 2.780809 -8.422206 0.000000 0.000000 0.000000 
